<svg width="368" height="298" viewBox="0 0 368 298" fill="none" xmlns="http://www.w3.org/2000/svg">
<path d="M120.421 36.3223L36.0134 120.73C34.6622 122.081 34.6622 124.319 36.0134 125.671L204.829 294.487C206.181 295.838 208.418 295.838 209.77 294.487L294.178 210.079C302.243 202.014 314.699 200.916 323.946 206.827C325.72 207.967 328 206.658 328 204.547V6.00468C328 4.06233 326.438 2.5 324.495 2.5H125.953C123.884 2.5 122.575 4.78016 123.673 6.55361C129.626 15.8009 128.529 28.2151 120.421 36.3223Z" fill="#FFE84D" stroke="white" stroke-width="2" stroke-linecap="round" stroke-linejoin="round"/>
<path d="M94.9596 250.741C94.9596 250.741 98.5065 252.81 100.027 252.81C101.547 252.81 164.589 263.704 164.589 263.704L159.733 254.668L104.967 250.699L94.9596 250.741Z" fill="black" stroke="black" stroke-width="1.2" stroke-miterlimit="10" stroke-linecap="round" stroke-linejoin="round"/>
<path d="M310.181 8.53815L169.149 40.3336V146.234L310.181 187.868V8.53815Z" fill="white" stroke="black" stroke-width="1.2" stroke-miterlimit="10" stroke-linecap="round" stroke-linejoin="round"/>
<path d="M172.823 43.6695V143.236L304.481 180.268V15.632L172.823 43.6695Z" fill="#FFE84D" stroke="black" stroke-width="1.2" stroke-miterlimit="10" stroke-linecap="round" stroke-linejoin="round"/>
<path d="M315.839 185.419L310.181 187.868V8.53815L315.839 10.9872V185.419Z" fill="#FFE84D" stroke="black" stroke-width="1.2" stroke-miterlimit="10" stroke-linecap="round" stroke-linejoin="round"/>
<path d="M289.617 131.54L236.245 156.875L210.065 97.9709L264.62 73.6071L289.617 131.54Z" fill="white"/>
<path d="M237.427 85.7257L264.62 73.6071L289.617 131.54L236.245 156.875L219.861 119.97" stroke="black" stroke-width="1.2" stroke-miterlimit="10" stroke-linecap="round" stroke-linejoin="round"/>
<path d="M245.365 141.547L239.412 144.334L226.491 114.228L232.529 111.525L245.365 141.547Z" fill="#FFE84D"/>
<path d="M256.851 136.227L250.981 138.929L246.674 129.175L252.586 126.473L256.851 136.227Z" fill="#FFE84D"/>
<path d="M268.082 130.991L262.298 133.651L251.488 108.907L257.315 106.332L268.082 130.991Z" fill="#FFE84D"/>
<path d="M279.103 125.84L273.445 128.5L264.198 107.176L269.941 104.643L279.103 125.84Z" fill="#FFE84D"/>
<path d="M237.427 145.559L281.172 125.206" stroke="black" stroke-width="1.2" stroke-miterlimit="10" stroke-linecap="round" stroke-linejoin="round"/>
<path d="M281.172 105.783L289.617 131.54L279.399 107.809L281.172 105.783Z" fill="black"/>
<path d="M199.762 131.667L181.859 125.079L191.064 100.124L203.267 104.643L206.94 112.159L199.762 131.667Z" fill="white" stroke="black" stroke-width="1.2" stroke-miterlimit="10" stroke-linecap="round" stroke-linejoin="round"/>
<path d="M196.469 121.321L191.022 119.295L188.826 122.039L185.532 120.815L196.722 107.809L199.593 108.865L199.678 126.008L196.384 124.784L196.469 121.321ZM192.795 117.099L196.553 118.492L196.722 112.159L192.795 117.099Z" fill="#FFE84D"/>
<path d="M241.143 108.907L236.921 114.523L280.835 111.145L279.399 107.809L241.143 108.907Z" fill="black"/>
<path d="M288.097 47.8076L293.544 46.6675C293.122 53.0435 292.826 59.6306 292.7 66.4288C292.404 80.2787 292.742 93.3684 293.544 105.614C289.786 88.7659 286.07 71.9181 282.312 55.0703L288.097 47.8076Z" fill="black"/>
<path d="M293.544 105.614C274.627 108.569 255.753 111.567 236.92 114.523C234.176 95.3952 233.585 76.0561 235.147 56.8437C253.599 52.1567 272.178 47.4697 290.884 42.7827C289.195 63.5997 290.082 84.7122 293.544 105.614Z" fill="white" stroke="black" stroke-width="1.2" stroke-miterlimit="10" stroke-linecap="round" stroke-linejoin="round"/>
<path d="M280.159 75.3383C280.623 88.7659 273.361 101.391 262.847 103.122C252.755 104.811 243.465 95.6908 243.128 83.1077C242.747 70.8202 251.235 59.2083 261.2 56.7593C271.629 54.1835 279.694 62.2907 280.159 75.3383Z" fill="#FFE84D"/>
<path d="M268.42 76.605C264.662 74.7893 260.947 72.9314 257.231 71.1158C256.386 70.6935 255.373 71.3269 255.373 72.2981C255.373 77.6184 255.542 82.8966 255.837 88.2169C255.922 89.3148 257.231 89.8637 258.033 89.0614C261.538 85.6412 265.085 82.1787 268.716 78.7585C269.392 78.0829 269.223 76.9851 268.42 76.605Z" fill="white"/>
<path d="M211.079 79.8142C201.494 79.9408 191.951 80.0675 182.366 80.1942C181.394 69.469 181.268 58.7016 182.028 47.9764C191.486 46.583 200.987 45.1896 210.487 43.7961C209.559 55.7881 209.77 67.8222 211.079 79.8142Z" fill="white"/>
<path d="M200.311 55.0703C200.269 56.3792 199.213 57.5616 197.904 57.7305C196.638 57.8571 195.666 56.9282 195.709 55.6192C195.751 54.3102 196.807 53.1279 198.073 52.959C199.382 52.7901 200.353 53.7191 200.311 55.0703Z" fill="#FFE84D"/>
<path d="M200.945 70.1446C197.398 65.8799 194.02 61.6151 190.726 57.3504C187.559 61.9529 184.561 66.5133 181.69 71.1158" stroke="#FFE84D" stroke-width="1.2" stroke-miterlimit="10" stroke-linecap="round" stroke-linejoin="round"/>
<path d="M210.234 69.6801C207.236 66.2177 204.365 62.7974 201.578 59.335C200.1 61.4462 198.665 63.5152 197.229 65.6265" stroke="#FFE84D" stroke-width="1.2" stroke-miterlimit="10" stroke-linecap="round" stroke-linejoin="round"/>
<path d="M211.079 79.8142C201.494 79.9408 191.951 80.0675 182.366 80.1942C181.394 69.469 181.268 58.7016 182.028 47.9764C191.486 46.583 200.987 45.1896 210.487 43.7961C209.559 55.7881 209.77 67.8222 211.079 79.8142Z" stroke="black" stroke-width="1.2" stroke-miterlimit="10" stroke-linecap="round" stroke-linejoin="round"/>
<path d="M215.639 117.986L206.265 96.9153L236.456 83.4455L234.809 105.783L215.639 117.986Z" fill="white" stroke="white" stroke-width="1.2" stroke-miterlimit="10" stroke-linecap="round" stroke-linejoin="round"/>
<path d="M229.7 111.398L221.593 115.157L215.259 100.082L223.408 96.4086L229.7 111.398Z" fill="#FFE84D"/>
<path d="M205.927 51.7767L237.807 69.5534L227.547 132.3L206.265 119.295" stroke="black" stroke-width="1.2" stroke-miterlimit="10" stroke-linecap="round" stroke-linejoin="round"/>
<path d="M209.12 117.706L204.041 115.118L186.29 149.957L191.369 152.545L209.12 117.706Z" fill="black" stroke="black" stroke-width="1.2" stroke-miterlimit="10" stroke-linecap="round" stroke-linejoin="round"/>
<path d="M191.177 152.75C191.584 152.125 190.852 150.927 189.542 150.075C188.232 149.222 186.841 149.039 186.434 149.664C186.027 150.29 186.759 151.488 188.068 152.34C189.378 153.192 190.77 153.376 191.177 152.75Z" fill="black" stroke="black" stroke-width="1.2" stroke-miterlimit="10" stroke-linecap="round" stroke-linejoin="round"/>
<path d="M204.872 89.7371C210.065 79.5608 219.566 73.6915 227.631 75.0005C226.66 74.0293 225.562 73.227 224.337 72.5937C215.639 68.16 203.732 74.1982 197.693 86.0635C191.655 97.9287 193.766 111.145 202.465 115.537C203.689 116.17 204.998 116.592 206.349 116.803C200.522 111.061 199.678 99.9133 204.872 89.7371Z" fill="black" stroke="black" stroke-width="1.2" stroke-miterlimit="10" stroke-linecap="round" stroke-linejoin="round"/>
<path d="M209.643 119.252C218.341 123.686 230.249 117.648 236.287 105.783C242.325 93.9173 240.214 80.7008 231.516 76.3094L224.337 72.6358C233.036 77.0694 235.147 90.2437 229.109 102.109C223.071 113.974 211.121 120.012 202.465 115.579L209.643 119.252Z" fill="black" stroke="black" stroke-width="1.2" stroke-miterlimit="10" stroke-linecap="round" stroke-linejoin="round"/>
<path d="M205.632 116.339L212.008 115.748C204.154 111.23 202.296 98.8999 207.954 87.7525C209.516 84.67 211.543 81.9676 213.781 79.7719C212.092 80.5742 205.209 84.1211 201.916 92.355C197.82 102.573 202.634 111.694 203.309 112.919C204.112 114.059 204.872 115.199 205.632 116.339Z" fill="white"/>
<path d="M224.337 72.5937C215.639 68.16 203.732 74.1982 197.693 86.0635C191.655 97.9287 193.766 111.145 202.465 115.537C211.163 119.97 223.071 113.932 229.109 102.067C235.147 90.2438 233.036 77.0273 224.337 72.5937ZM203.351 112.961C195.667 109.034 193.766 97.3376 199.129 86.8235C204.492 76.3095 215.048 70.9469 222.733 74.8738C230.418 78.8007 232.318 90.4971 226.955 101.011C221.593 111.525 211.036 116.846 203.351 112.961Z" fill="#FFE84D" stroke="black" stroke-width="1.2" stroke-miterlimit="10" stroke-linecap="round" stroke-linejoin="round"/>
<path d="M194.231 134.327L195.371 135.425C198.665 136.058 202.845 135.171 204.027 134.833C205.674 134.369 205.969 131.878 205.969 131.878C206.181 131.582 206.518 131.075 206.687 130.442C206.941 129.555 206.898 128.795 206.814 128.373C207.025 128.035 207.363 127.36 207.363 126.473C207.405 125.797 206.941 125.248 207.11 124.953C207.616 124.108 208.081 121.87 206.941 121.828C204.28 121.744 201.662 122.293 199.045 122.546C201.578 119.886 202.845 118.07 202.38 117.563C201.789 116.93 198.031 119.168 194.189 120.773C193.133 121.195 192.246 121.533 191.613 121.744" fill="#FFE84D"/>
<path d="M194.231 134.327L195.371 135.425C198.665 136.058 202.845 135.171 204.027 134.833C205.674 134.369 205.969 131.878 205.969 131.878C206.181 131.582 206.518 131.075 206.687 130.442C206.941 129.555 206.898 128.795 206.814 128.373C207.025 128.035 207.363 127.36 207.363 126.473C207.405 125.797 206.941 125.248 207.11 124.953C207.616 124.108 208.081 121.87 206.941 121.828C204.28 121.744 201.662 122.293 199.045 122.546C201.578 119.886 202.845 118.07 202.38 117.563C201.789 116.93 198.031 119.168 194.189 120.773C193.133 121.195 192.246 121.533 191.613 121.744" stroke="black" stroke-width="1.2" stroke-miterlimit="10" stroke-linecap="round" stroke-linejoin="round"/>
<path d="M237.343 69.5956L230.882 61.7418C230.671 61.4884 230.713 61.1084 230.967 60.8973C231.22 60.6861 231.6 60.7284 231.811 60.9817C231.811 60.9817 231.811 61.0239 231.853 61.0239L237.807 69.3001C237.892 69.4267 237.849 69.5956 237.723 69.6801C237.596 69.7223 237.427 69.6801 237.343 69.5956Z" fill="black" stroke="black" stroke-width="1.2" stroke-miterlimit="10" stroke-linecap="round" stroke-linejoin="round"/>
<path d="M233.471 64.1068C235.263 62.7274 235.772 60.3804 234.605 58.8648C233.439 57.3491 231.041 57.2387 229.248 58.6181C227.455 59.9975 226.947 62.3444 228.113 63.8601C229.279 65.3757 231.678 65.4862 233.471 64.1068Z" fill="#FFE84D" stroke="black" stroke-width="1.2" stroke-miterlimit="10" stroke-linecap="round" stroke-linejoin="round"/>
<path d="M225.393 49.6232L221.508 52.5789L229.827 62.0796C229.827 62.0796 229.827 62.1218 229.869 62.1218C230.333 62.7129 231.305 62.7552 232.022 62.2062C232.74 61.6573 232.951 60.7284 232.487 60.095L232.445 60.0528L225.393 49.6232Z" fill="black"/>
<path d="M228.729 49.2009C230.038 50.9322 229.235 53.7612 226.871 55.5769C224.548 57.3926 221.593 57.4348 220.242 55.7458L219.144 54.3102L227.589 47.8075L228.729 49.2009Z" fill="#FFE84D" stroke="black" stroke-width="1.2" stroke-miterlimit="10" stroke-linecap="round" stroke-linejoin="round"/>
<path d="M225.805 54.1255C228.134 52.3336 228.949 49.4876 227.627 47.7686C226.304 46.0496 223.344 46.1087 221.015 47.9005C218.686 49.6923 217.871 52.5383 219.193 54.2573C220.516 55.9763 223.476 55.9173 225.805 54.1255Z" fill="#FFE84D" stroke="black" stroke-width="1.2" stroke-miterlimit="10" stroke-linecap="round" stroke-linejoin="round"/>
<path d="M205.969 51.9878L206.096 51.7345L203.731 50.0032L203.351 50.5944L205.969 51.9878Z" fill="#FFE84D" stroke="black" stroke-width="1.2" stroke-miterlimit="10" stroke-linecap="round" stroke-linejoin="round"/>
<path d="M203.478 47.0053C204.027 47.3853 204.28 49.2432 203.478 50.51C202.676 51.7767 201.156 52.2412 200.438 51.8189L199.931 51.4811L202.929 46.6252L203.478 47.0053Z" fill="black" stroke="black" stroke-width="1.2" stroke-miterlimit="10" stroke-linecap="round" stroke-linejoin="round"/>
<path d="M202.929 46.6675C203.858 47.3009 203.9 48.9054 203.056 50.1299C202.254 51.3545 200.691 51.9456 199.889 51.5234C198.918 50.9744 198.833 49.2854 199.678 47.9765C200.522 46.6253 202.042 46.0341 202.929 46.6675Z" fill="#FFE84D" stroke="black" stroke-width="1.2" stroke-miterlimit="10" stroke-linecap="round" stroke-linejoin="round"/>
<path d="M215.048 130.442L227.42 132.047C227.504 132.047 227.547 132.131 227.547 132.216C227.547 132.3 227.462 132.342 227.378 132.342L214.921 131.624C214.583 131.624 214.33 131.329 214.33 130.991C214.33 130.653 214.626 130.4 214.963 130.4C215.006 130.442 215.048 130.442 215.048 130.442Z" fill="black" stroke="black" stroke-width="1.2" stroke-miterlimit="10" stroke-linecap="round" stroke-linejoin="round"/>
<path d="M215.006 133.905C216.568 133.905 217.835 132.638 217.835 131.075C217.835 129.513 216.568 128.246 215.006 128.246C213.443 128.246 212.177 129.513 212.177 131.075C212.177 132.638 213.443 133.905 215.006 133.905Z" fill="white" stroke="black" stroke-width="1.2" stroke-miterlimit="10" stroke-linecap="round" stroke-linejoin="round"/>
<path d="M89.3015 111.145L89.9771 108.105L103.362 105.656L100.998 108.105L94.0729 112.201L89.3015 111.145Z" fill="#FFE84D"/>
<path d="M155.173 76.8584C149.008 73.8604 120.168 52.4523 104.756 76.6895C99.4777 84.9656 94.6641 92.5239 91.0327 99.5755C94.0307 102.7 100.956 101.518 103.954 104.642C107.585 99.1532 115.101 74.7894 128.655 84.9656C133.891 88.0058 130.598 87.7525 135.834 90.8349" fill="white"/>
<path d="M155.173 76.8584C149.008 73.8604 120.168 52.4523 104.756 76.6895C99.4777 84.9656 94.6641 92.5239 91.0327 99.5755C94.0307 102.7 100.956 101.518 103.954 104.642C107.585 99.1532 115.101 74.7894 128.655 84.9656C133.891 88.0058 130.598 87.7525 135.834 90.8349" stroke="black" stroke-width="1.2" stroke-miterlimit="10" stroke-linecap="round" stroke-linejoin="round"/>
<path d="M103.08 84.2659L77.9426 86.1424L79.6179 108.585L104.756 106.709L103.08 84.2659Z" fill="white" stroke="black" stroke-width="1.2" stroke-miterlimit="10" stroke-linecap="round" stroke-linejoin="round"/>
<path d="M91.455 89.2725L93.5663 92.8617C93.6929 93.0728 93.9041 93.1995 94.1574 93.2417L98.3377 93.5373C98.9711 93.5795 99.2666 94.2973 98.8444 94.7618L96.0575 97.8864C95.8886 98.0553 95.8464 98.3087 95.8886 98.5621L96.902 102.616C97.0709 103.207 96.4376 103.714 95.8886 103.502L92.0462 101.813C91.835 101.729 91.5395 101.729 91.3706 101.856L87.8236 104.094C87.3169 104.431 86.5991 104.009 86.6836 103.376L87.0636 99.1954C87.1058 98.9421 86.9791 98.6887 86.8102 98.5621L83.6011 95.8596C83.1367 95.4796 83.3056 94.6773 83.9389 94.5507L88.0348 93.6217C88.2881 93.5795 88.457 93.4106 88.5837 93.1572L90.146 89.2725C90.3572 88.8081 91.1594 88.7236 91.455 89.2725Z" fill="#FFE84D"/>
<path d="M86.2612 110.385C86.3879 104.98 86.3456 103.334 85.3745 103.291C84.5299 103.291 83.5588 104.98 83.3054 110.638C83.3054 111.567 83.8543 113.214 86.3456 112.834" fill="#FFE84D"/>
<path d="M86.2612 110.385C86.3879 104.98 86.3456 103.334 85.3745 103.291C84.5299 103.291 83.5588 104.98 83.3054 110.638C83.3054 111.567 83.8543 113.214 86.3456 112.834" stroke="black" stroke-width="1.2" stroke-miterlimit="10" stroke-linecap="round" stroke-linejoin="round"/>
<path d="M89.0481 110.892C89.1748 104.685 89.1326 102.7 88.1192 102.7C87.2324 102.658 86.1768 104.685 85.9235 111.23C85.9235 112.285 86.6835 114.481 89.3437 113.256" fill="#FFE84D"/>
<path d="M89.0481 110.892C89.1748 104.685 89.1326 102.7 88.1192 102.7C87.2324 102.658 86.1768 104.685 85.9235 111.23C85.9235 112.285 86.6835 114.481 89.3437 113.256" stroke="black" stroke-width="1.2" stroke-miterlimit="10" stroke-linecap="round" stroke-linejoin="round"/>
<path d="M91.5395 111.018C91.6662 105.149 91.6239 103.291 90.6528 103.291C89.8083 103.249 88.8371 105.149 88.5837 111.314C88.4571 112.876 89.6816 114.777 92.2995 113.003" fill="#FFE84D"/>
<path d="M91.5395 111.018C91.6662 105.149 91.6239 103.291 90.6528 103.291C89.8083 103.249 88.8371 105.149 88.5837 111.314C88.4571 112.876 89.6816 114.777 92.2995 113.003" stroke="black" stroke-width="1.2" stroke-miterlimit="10" stroke-linecap="round" stroke-linejoin="round"/>
<path d="M94.0308 110.934C94.1575 105.909 94.1152 104.347 93.2285 104.305C92.4684 104.305 91.5817 105.909 91.3284 111.187C91.3284 112.032 92.0462 113.214 92.8485 113.214C94.7064 113.552 99.0556 110.976 102.434 106.923" fill="#FFE84D"/>
<path d="M94.0308 110.934C94.1575 105.909 94.1152 104.347 93.2285 104.305C92.4684 104.305 91.5817 105.909 91.3284 111.187C91.3284 112.032 92.0462 113.214 92.8485 113.214C94.7064 113.552 99.0556 110.976 102.434 106.923" stroke="black" stroke-width="1.2" stroke-miterlimit="10" stroke-linecap="round" stroke-linejoin="round"/>
<path d="M124.011 80.152C120.633 80.7009 116.875 83.7411 116.03 84.5856C118.732 83.5722 125.193 82.3477 128.698 84.9234C130.935 86.2324 131.611 86.908 132.076 87.5414C133.131 86.7813 134.187 85.9791 135.242 85.219C132.498 81.4187 129.584 79.223 124.011 80.152Z" fill="black"/>
<path d="M187.517 83.4455C190.431 85.0923 193.091 86.6968 192.542 87.668C191.993 88.6392 189.206 87.9636 186.081 87.0769" fill="#FFE84D"/>
<path d="M187.517 83.4455C190.431 85.0923 193.091 86.6968 192.542 87.668C191.993 88.6392 189.206 87.9636 186.081 87.0769" stroke="black" stroke-width="1.2" stroke-miterlimit="10" stroke-linecap="round" stroke-linejoin="round"/>
<path d="M190.515 72.0447C190.051 89.8637 182.07 97.5909 177.552 96.6198C174.047 95.8597 171.472 90.9194 171.472 82.6855L171.978 71.158C178.185 71.4536 184.35 71.7492 190.515 72.0447Z" fill="#FFE84D"/>
<path d="M186.926 74.7471C186.884 77.3651 186.546 81.3342 184.941 85.8101C183.041 90.9616 180.254 94.5929 178.396 96.662C178.819 96.6197 179.283 96.5353 179.705 96.4931C183.928 95.2685 189.417 88.3014 190.388 74.916L186.926 74.7471Z" fill="white"/>
<path d="M190.515 72.0447C190.051 89.8637 182.07 97.5909 177.552 96.6198C174.047 95.8597 171.472 90.9194 171.472 82.6855L171.978 71.158C178.185 71.4536 184.35 71.7492 190.515 72.0447Z" stroke="black" stroke-width="1.2" stroke-miterlimit="10" stroke-linecap="round" stroke-linejoin="round"/>
<path d="M175.018 85.3034L166.447 91.2149L151.161 78.4207L160.577 76.0139L175.23 72.0025" fill="#FFE84D"/>
<path d="M175.018 85.3034L166.447 91.2149L151.161 78.4207L160.577 76.0139L175.23 72.0025" stroke="black" stroke-width="1.2" stroke-miterlimit="10" stroke-linecap="round" stroke-linejoin="round"/>
<path d="M160.577 76.0139C162.098 77.2384 162.858 78.3363 164.335 80.8276C166.236 83.9522 168.094 88.0481 168.431 89.8637C167.502 90.4127 165.982 91.5105 165.053 92.1017L150.275 76.3939L152.597 76.9851L160.577 76.0139Z" fill="white" stroke="black" stroke-width="1.2" stroke-miterlimit="10" stroke-linecap="round" stroke-linejoin="round"/>
<path d="M198.807 76.9272C199.114 75.706 191.498 72.7387 181.796 70.2996C172.093 67.8605 163.979 66.8733 163.672 68.0946C163.365 69.3158 170.982 72.2831 180.684 74.7222C190.386 77.1613 198.5 78.1485 198.807 76.9272Z" fill="black" stroke="black" stroke-width="1.2" stroke-miterlimit="10" stroke-linecap="round" stroke-linejoin="round"/>
<path d="M185.321 60.095C183.801 59.6727 183.843 57.4348 182.83 57.0125C181.479 56.4214 177.383 58.0259 171.894 69.3001C171.767 69.7645 176.032 71.2002 181.437 72.5514C186.799 73.9026 191.275 74.6204 191.36 74.1559C192.542 69.469 192.12 59.1238 189.037 58.7438C187.77 58.5749 186.799 60.5172 185.321 60.095Z" fill="black" stroke="black" stroke-width="1.2" stroke-miterlimit="10" stroke-linecap="round" stroke-linejoin="round"/>
<path d="M170.965 70.3979C170.078 71.4957 168.347 70.3134 167.883 74.7471C167.502 78.2095 169.783 82.052 174.09 81.5875C180.423 80.9119 182.535 79.4763 184.393 75.0426L170.965 70.3979Z" fill="black" stroke="black" stroke-width="1.2" stroke-miterlimit="10" stroke-linecap="round" stroke-linejoin="round"/>
<path d="M199.298 77.7029C198.622 78.843 190.388 77.9562 180.677 75.5494C170.965 73.1426 162.309 69.7646 162.604 68.54" stroke="#FFE84D" stroke-width="1.2" stroke-miterlimit="10" stroke-linecap="round" stroke-linejoin="round"/>
<path d="M170.965 68.8356C170.796 70.1868 177.045 71.8336 181.183 72.8892C186.546 74.2404 192.12 75.2961 192.289 74.4516" stroke="#FFE84D" stroke-width="1.2" stroke-miterlimit="10" stroke-linecap="round" stroke-linejoin="round"/>
<path d="M105.938 108.907L100.998 111.145C91.2438 118.492 97.9576 165.32 99.3088 176.214C95.8042 184.152 92.3839 192.893 89.2593 202.351C83.9389 218.524 80.5609 233.682 78.4074 247.194C77.9429 250.15 80.2231 252.81 83.2211 252.81H103.658C104.756 252.81 105.474 251.67 104.967 250.699C104.503 249.812 103.954 248.883 103.278 247.912C100.913 244.576 98.1688 242.55 96.2686 241.367C103.911 224.393 111.596 207.376 119.239 190.402C120.126 188.459 120.759 186.433 121.097 184.321C124.348 165.32 127.6 146.276 130.851 127.275" fill="black"/>
<path d="M105.938 108.907L100.998 111.145C91.2438 118.492 97.9576 165.32 99.3088 176.214C95.8042 184.152 92.3839 192.893 89.2593 202.351C83.9389 218.524 80.5609 233.682 78.4074 247.194C77.9429 250.15 80.2231 252.81 83.2211 252.81H103.658C104.756 252.81 105.474 251.67 104.967 250.699C104.503 249.812 103.954 248.883 103.278 247.912C100.913 244.576 98.1688 242.55 96.2686 241.367C103.911 224.393 111.596 207.376 119.239 190.402C120.126 188.459 120.759 186.433 121.097 184.321C124.348 165.32 127.6 146.276 130.851 127.275" stroke="black" stroke-width="1.2" stroke-miterlimit="10" stroke-linecap="round" stroke-linejoin="round"/>
<path d="M149.219 74.7893C136.889 73.607 106.572 104.136 100.998 111.145C113.961 119.675 126.924 128.204 139.887 136.734C144.785 130.358 149.768 123.475 154.793 116.128C159.395 109.372 162.942 103.038 166.827 96.662C165.898 93.9173 161 75.9294 149.219 74.7893Z" fill="white" stroke="black" stroke-width="1.2" stroke-miterlimit="10" stroke-linecap="round" stroke-linejoin="round"/>
<path d="M100.027 112.919L100.998 111.187C105.896 111.99 113.074 113.805 120.886 117.986C123.166 119.21 125.235 120.519 127.135 121.828C132.667 125.671 137.058 130.991 139.76 137.156C143.518 145.643 147.192 154.468 150.781 163.673C153.526 170.683 156.059 177.565 158.466 184.279C159.1 186.053 159.606 187.826 160.071 189.642C165.053 210.459 170.078 231.276 175.061 252.05C177.172 252.768 184.984 254.837 187.897 258.722C188.488 259.524 188.024 260.664 187.053 260.918C184.139 261.551 181.394 262.142 177.847 262.649C173.625 263.24 169.614 263.578 165.856 263.789C163.787 263.916 161.844 262.776 160.915 260.918C155.848 251.121 150.697 239.256 146.39 225.406C142.885 214.048 140.647 203.534 139.212 194.244C134.144 186.939 128.951 179.001 123.842 170.429C118.183 160.929 113.243 151.766 108.894 143.067" fill="black"/>
<path d="M100.027 112.919L100.998 111.187C105.896 111.99 113.074 113.805 120.886 117.986C123.166 119.21 125.235 120.519 127.135 121.828C132.667 125.671 137.058 130.991 139.76 137.156C143.518 145.643 147.192 154.468 150.781 163.673C153.526 170.683 156.059 177.565 158.466 184.279C159.1 186.053 159.606 187.826 160.071 189.642C165.053 210.459 170.078 231.276 175.061 252.05C177.172 252.768 184.984 254.837 187.897 258.722C188.488 259.524 188.024 260.664 187.053 260.918C184.139 261.551 181.394 262.142 177.847 262.649C173.625 263.24 169.614 263.578 165.856 263.789C163.787 263.916 161.844 262.776 160.915 260.918C155.848 251.121 150.697 239.256 146.39 225.406C142.885 214.048 140.647 203.534 139.212 194.244C134.144 186.939 128.951 179.001 123.842 170.429C118.183 160.929 113.243 151.766 108.894 143.067" stroke="black" stroke-width="1.2" stroke-miterlimit="10" stroke-linecap="round" stroke-linejoin="round"/>
<path d="M127.642 179.592C123.588 173.216 119.83 166.122 115.861 158.226C113.243 152.99 110.921 147.923 108.894 143.11" stroke="white" stroke-width="1.2" stroke-miterlimit="10" stroke-linecap="round" stroke-linejoin="round"/>
<path d="M152.428 75.5494C155.553 76.7317 158.086 78.674 160.197 80.912C164.209 85.2189 167.291 93.6639 167.207 99.5332C167.08 109.245 168.347 115.072 171.514 118.535C177.636 125.248 194.273 120.73 194.273 120.73C195.033 122.208 196.131 124.784 196.342 128.246C196.553 131.413 195.92 133.947 195.413 135.425C195.413 135.425 176.876 141.421 163.533 136.776C157.833 134.791 146.474 126.051 148.881 95.6063" fill="white"/>
<path d="M152.428 75.5494C155.553 76.7317 158.086 78.674 160.197 80.912C164.209 85.2189 167.291 93.6639 167.207 99.5332C167.08 109.245 168.347 115.072 171.514 118.535C177.636 125.248 194.273 120.73 194.273 120.73C195.033 122.208 196.131 124.784 196.342 128.246C196.553 131.413 195.92 133.947 195.413 135.425C195.413 135.425 176.876 141.421 163.533 136.776C157.833 134.791 146.474 126.051 148.881 95.6063" stroke="black" stroke-width="1.2" stroke-miterlimit="10" stroke-linecap="round" stroke-linejoin="round"/>
<path d="M189.079 121.701C189.797 123.559 190.473 125.84 190.811 129.049C191.106 132.173 190.853 134.833 190.515 136.734" stroke="black" stroke-width="1.2" stroke-miterlimit="10" stroke-linecap="round" stroke-linejoin="round"/>
<path d="M144.067 131.202C144.363 125.628 144.912 119.59 145.883 113.13C146.643 108.063 147.572 103.291 148.628 98.8998C149.303 106.627 149.979 114.396 150.655 122.124L144.067 131.202Z" fill="black"/>
<path d="M154.835 251.839L160.324 262.015C160.577 262.395 161.084 263.071 161.929 263.62C162.646 264.085 165.011 265.098 166.024 265.225" stroke="#FFE84D" stroke-width="1.2" stroke-miterlimit="10" stroke-linecap="round" stroke-linejoin="round"/>
<path d="M93.4396 254.331L103.7 253.148C105.009 253.064 105.812 251.206 105.347 250.108C104.967 248.63 102.645 244.914 101.969 244.197" stroke="#FFE84D" stroke-width="1.2" stroke-miterlimit="10" stroke-linecap="round" stroke-linejoin="round"/>
</svg>
